<?xml version="1.0" encoding="UTF-8"?>
<svg version="1.1" xmlns="http://www.w3.org/2000/svg" width="243" height="197">
<path d="M0 0 C80.19 0 160.38 0 243 0 C243 65.01 243 130.02 243 197 C162.81 197 82.62 197 0 197 C0 131.99 0 66.98 0 0 Z " fill="#232323" transform="translate(0,0)"/>
<path d="M0 0 C4.35410978 -0.0583721 8.70811793 -0.09372173 13.0625 -0.125 C14.29162109 -0.14175781 15.52074219 -0.15851562 16.78710938 -0.17578125 C32.34909705 -0.25967337 32.34909705 -0.25967337 39 6 C40.84593445 9.69186889 40.34449699 13.96172979 40 18 C38.19027833 22.62484427 35.1908015 24.4855191 31 27 C31.94875 27.721875 32.8975 28.44375 33.875 29.1875 C38.07411472 32.73797098 41.18243172 36.96506012 44.35888672 41.41674805 C46.90910441 44.90595158 49.25517359 46.90103146 53 49 C53 49.66 53 50.32 53 51 C51.27225692 51.10892951 49.54249052 51.18601092 47.8125 51.25 C46.84957031 51.29640625 45.88664062 51.3428125 44.89453125 51.390625 C39.98918473 50.72863492 37.7256769 47.90336833 34.71875 44.16015625 C33.9865625 43.13792969 33.254375 42.11570313 32.5 41.0625 C29.58994192 37.00993673 26.60630649 33.45192693 23 30 C22.67 29.67 22.34 29.34 22 29 C19.69 28.67 17.38 28.34 15 28 C15.33 33.61 15.66 39.22 16 45 C18.31 45.99 20.62 46.98 23 48 C23 48.66 23 49.32 23 50 C15.41 50 7.82 50 0 50 C0 49.34 0 48.68 0 48 C0.81130371 47.64357422 1.62260742 47.28714844 2.45849609 46.91992188 C5.43473206 45.12912473 5.43473206 45.12912473 5.64697266 41.12695312 C5.67998893 39.51204617 5.68380081 37.89637381 5.6640625 36.28125 C5.66884613 35.42696411 5.67362976 34.57267822 5.67855835 33.69250488 C5.6819597 31.88694415 5.67274064 30.08132204 5.65185547 28.27587891 C5.62509044 25.50934775 5.65159227 22.74687345 5.68359375 19.98046875 C5.68028969 18.22655353 5.67388353 16.47264084 5.6640625 14.71875 C5.67418365 13.89056763 5.68430481 13.06238525 5.69473267 12.20910645 C5.69775774 9.60283414 5.69775774 9.60283414 5 6 C2.56947533 4.09708643 2.56947533 4.09708643 0 3 C0 2.01 0 1.02 0 0 Z " fill="#F2F2F2" transform="translate(54,37)"/>
<path d="M0 0 C3.70806596 -0.11674705 7.4156554 -0.18743274 11.125 -0.25 C12.17171875 -0.28351563 13.2184375 -0.31703125 14.296875 -0.3515625 C20.56164972 -0.43086345 24.24363764 -0.21055028 29 4 C31 6 31 6 31.375 9.8125 C31.27615951 14.00181628 30.04310993 16.04383606 27 19 C26.01 19.66 25.02 20.32 24 21 C24.74121094 21.54269531 25.48242188 22.08539063 26.24609375 22.64453125 C29.96960641 25.82932293 32.32681104 29.58760858 35.03515625 33.63671875 C36.77398202 36.0622466 36.77398202 36.0622466 38.99609375 36.95703125 C41.44639133 37.16537531 41.44639133 37.16537531 45 35 C45 24.77 45 14.54 45 4 C43.68 3.34 42.36 2.68 41 2 C41 1.34 41 0.68 41 0 C50.9 0 60.8 0 71 0 C70.67 2.31 70.34 4.62 70 7 C67 7 67 7 65.3125 5.5 C61.81849432 3.23361794 59.118203 3.7299539 55 4 C53.12175109 5.87824891 53.60897603 9.03935276 53.4375 11.5625 C53.35371094 12.76003906 53.26992188 13.95757812 53.18359375 15.19140625 C53.09271484 16.58166016 53.09271484 16.58166016 53 18 C54.93798521 17.69052329 56.87537426 17.37731166 58.8125 17.0625 C59.89144531 16.88847656 60.97039062 16.71445313 62.08203125 16.53515625 C65.04933356 16.06128079 65.04933356 16.06128079 68 15 C67.44271087 18.34373475 66.64826111 21.03312999 65 24 C64.319375 23.690625 63.63875 23.38125 62.9375 23.0625 C59.63034088 21.86629351 56.48454122 21.40994603 53 21 C53.14029419 23.1462026 53.28738164 25.29196218 53.4375 27.4375 C53.51871094 28.63246094 53.59992187 29.82742187 53.68359375 31.05859375 C53.67656114 33.88570244 53.67656114 33.88570244 55 35 C60.78560013 35.63337096 64.94878479 35.05422315 70 32 C71.33333333 31.33333333 72.66666667 30.66666667 74 30 C73.4059803 35.34617729 73.4059803 35.34617729 71.97021484 37.65844727 C68.84487029 39.78654743 65.45267867 39.56318212 61.7890625 39.65234375 C60.58133682 39.6935006 60.58133682 39.6935006 59.34921265 39.73548889 C57.64643556 39.78882242 55.94340635 39.83456795 54.24023438 39.87329102 C51.64038922 39.93712217 49.04381429 40.038372 46.4453125 40.14257812 C44.78912601 40.18978356 43.13287473 40.23477802 41.4765625 40.27734375 C40.70245026 40.31045151 39.92833801 40.34355927 39.13076782 40.37767029 C35.41378395 40.43179316 33.27623353 40.17520659 30.10620117 38.16455078 C27.61806846 35.60748753 25.68874002 32.88996929 23.6875 29.9375 C19.84980835 24.65101536 17.36195859 22.38806369 11 21 C11.33 25.95 11.66 30.9 12 36 C13.65 36.33 15.3 36.66 17 37 C17 37.66 17 38.32 17 39 C11.39 39 5.78 39 0 39 C0 38.34 0 37.68 0 37 C1.98 36.505 1.98 36.505 4 36 C3.93124341 31.47877933 3.84333968 26.95849432 3.73754883 22.43798828 C3.7042627 20.89968221 3.67624222 19.36125293 3.65356445 17.82275391 C3.62008442 15.61307182 3.5677769 13.40452265 3.51171875 11.1953125 C3.50213387 10.16085495 3.50213387 10.16085495 3.49235535 9.10549927 C3.45974286 6.95314611 3.45974286 6.95314611 3 4 C2.01 3.34 1.02 2.68 0 2 C0 1.34 0 0.68 0 0 Z " fill="#ECECEC" transform="translate(8,98)"/>
<path d="M0 0 C6.6 0 13.2 0 20 0 C20 0.99 20 1.98 20 3 C19.01 3.33 18.02 3.66 17 4 C17.47558151 11.22019208 19.80925873 17.16340126 22.5625 23.8125 C23.40165983 25.85882754 24.23650823 27.90693005 25.06640625 29.95703125 C25.43709229 30.85397705 25.80777832 31.75092285 26.18969727 32.67504883 C27 35 27 35 27 38 C27.66 38 28.32 38 29 38 C29.11214844 37.29359375 29.22429687 36.5871875 29.33984375 35.859375 C30.05995973 32.74029278 31.21565778 30.15089094 32.5625 27.25 C34.75098831 22.04356717 36.33176461 17.61838196 35 12 C33.33618341 8.40322002 31.63479358 4.81739679 28 3 C28 2.01 28 1.02 28 0 C33.28 0 38.56 0 44 0 C43.896875 1.54300781 43.79375 3.08601563 43.6875 4.67578125 C43.6875 11.8861033 46.16761365 17.65387364 49 24.1875 C49.47695312 25.33025391 49.95390625 26.47300781 50.4453125 27.65039062 C51.61308868 30.44137568 52.7980193 33.22361639 54 36 C55.87672086 33.18491871 56.94506118 30.7810831 58.12890625 27.6328125 C58.72155273 26.05693359 58.72155273 26.05693359 59.32617188 24.44921875 C59.73416016 23.35222656 60.14214844 22.25523438 60.5625 21.125 C60.97435547 20.03574219 61.38621094 18.94648437 61.81054688 17.82421875 C62.20435547 16.77105469 62.59816406 15.71789062 63.00390625 14.6328125 C63.36299072 13.67262207 63.7220752 12.71243164 64.09204102 11.72314453 C64.9482565 9.15518877 65.53467184 6.66360256 66 4 C64.35 3.67 62.7 3.34 61 3 C61.33 2.01 61.66 1.02 62 0 C67.28 0 72.56 0 78 0 C78 0.99 78 1.98 78 3 C77.25363281 3.38414063 76.50726563 3.76828125 75.73828125 4.1640625 C71.79310097 6.80919051 70.85971128 10.04080322 69.1875 14.375 C68.85419678 15.20338379 68.52089355 16.03176758 68.17749023 16.88525391 C67.09958223 19.58317275 66.04833244 22.29046385 65 25 C64.62842773 25.94617188 64.25685547 26.89234375 63.87402344 27.8671875 C62.76183136 30.69996664 61.6591702 33.53617801 60.5625 36.375 C60.04949341 37.70217041 60.04949341 37.70217041 59.52612305 39.05615234 C59.2094165 39.89098145 58.89270996 40.72581055 58.56640625 41.5859375 C58.28740479 42.3186084 58.00840332 43.0512793 57.72094727 43.80615234 C56.93995881 46.18270578 56.44470164 48.54023563 56 51 C54.35 51 52.7 51 51 51 C48.14507911 45.44771456 45.63124649 39.85684036 43.3125 34.0625 C41.69352607 29.17903039 41.69352607 29.17903039 39 25 C37.70150434 28.01794215 36.41247055 31.03983991 35.125 34.0625 C34.76019531 34.91005859 34.39539063 35.75761719 34.01953125 36.63085938 C32.00607861 41.37162513 30.28612012 46.01120776 29 51 C27.35 51 25.7 51 24 51 C19.53084869 41.51990844 15.75455594 31.81832807 12.01757812 22.03125 C8.60881084 11.59038983 8.60881084 11.59038983 1.75 3.5625 C1.1725 3.376875 0.595 3.19125 0 3 C0 2.01 0 1.02 0 0 Z " fill="#F0F0F0" transform="translate(163,37)"/>
<path d="M0 0 C6.00221527 3.38435321 9.57078354 7.7849865 11.75 14.3125 C13.69653222 21.94800435 13.91773455 28.43009345 9.875 35.4375 C6.27289449 39.23644188 2.93877817 41.19470257 -2.3125 41.8125 C-8.12584547 41.24069553 -11.937415 38.78927461 -15.89453125 34.53515625 C-21.31697864 27.66144557 -22.6466915 21.33048217 -22.5078125 12.640625 C-21.80733228 6.77946395 -19.18784147 3.22157911 -14.8125 -0.5625 C-9.5352726 -2.5261195 -5.05868923 -2.24400746 0 0 Z " fill="#282828" transform="translate(139.125,42.5625)"/>
<path d="M0 0 C6.35247707 4.96946546 9.23157683 10.58169504 10.2421875 18.55078125 C10.60574703 27.40118356 8.67123137 34.90920659 2.6171875 41.53125 C-4.38437075 47.76793214 -11.34948501 48.15716843 -20.56640625 47.9375 C-27.1649926 47.30149168 -31.02390741 45.05868615 -35.4453125 40.21875 C-38.93928476 35.77532876 -41.47310491 31.26723524 -42.1328125 25.59375 C-42.22046875 24.96984375 -42.308125 24.3459375 -42.3984375 23.703125 C-43.02958064 15.72777075 -39.49765998 8.67963622 -34.4921875 2.6015625 C-25.01706928 -6.29796442 -10.67014485 -7.03526034 0 0 Z M-31.5078125 7.53125 C-34.54655565 13.46829018 -34.12559959 20.89031951 -32.4375 27.1875 C-29.84150403 33.55750693 -25.9437884 38.73970206 -20.1953125 42.53125 C-15.38612717 44.19974287 -11.79843552 44.19337429 -7.0078125 42.46875 C-3.21670697 39.99628987 0.05550386 37.12068963 1.48828125 32.66015625 C2.94423077 24.71997792 1.86538645 16.48800624 -2.38671875 9.546875 C-6.25402962 4.61526332 -10.99169203 1.34880392 -17.2109375 0.21484375 C-23.90210383 -0.18100769 -27.46007905 2.52484284 -31.5078125 7.53125 Z " fill="#F4F4F4" transform="translate(150.1328125,40.40625)"/>
<path d="M0 0 C3.66623812 -0.1465954 7.331712 -0.23449874 11 -0.3125 C12.02996094 -0.35439453 13.05992187 -0.39628906 14.12109375 -0.43945312 C20.98147129 -0.54869481 25.78133577 0.32196794 31 5 C32.41000664 7.82001327 32.24548451 9.87007255 32 13 C30.25774158 16.7458556 28.30884559 18.62774913 25 21 C25.59167969 21.65226562 26.18335938 22.30453125 26.79296875 22.9765625 C34.03245141 30.98369014 34.03245141 30.98369014 36.9375 34.5625 C38.76474264 37.04650436 38.76474264 37.04650436 41 38 C41 38.66 41 39.32 41 40 C37.77157968 40.58698551 36.10686458 40.84358575 33 40 C28.9398402 36.53138666 25.741551 32.34421306 22.56640625 28.0703125 C19.39230407 23.88674176 16.99763844 22.97992911 12 22 C12.33 26.29 12.66 30.58 13 35 C14.65 35.66 16.3 36.32 18 37 C18 37.66 18 38.32 18 39 C12.06 39 6.12 39 0 39 C0 38.34 0 37.68 0 37 C1.32 36.34 2.64 35.68 4 35 C4.0989211 30.78253675 4.17149012 26.56568879 4.21972656 22.34741211 C4.23983525 20.91272214 4.26712673 19.47811407 4.30175781 18.04370117 C4.3503146 15.98075161 4.37297406 13.91888569 4.390625 11.85546875 C4.41157227 10.61434326 4.43251953 9.37321777 4.45410156 8.09448242 C4.32361416 4.89965862 4.32361416 4.89965862 1.97558594 3.1965332 C1.32364258 2.80167725 0.67169922 2.40682129 0 2 C0 1.34 0 0.68 0 0 Z " fill="#EAEAEA" transform="translate(163,98)"/>
<path d="M0 0 C3.70818297 -0.08756305 7.41609763 -0.14058015 11.125 -0.1875 C12.17171875 -0.21263672 13.2184375 -0.23777344 14.296875 -0.26367188 C21.3621273 -0.33074706 25.99806986 0.23506435 31.375 5.1875 C33.49360981 8.85432467 34.03873814 11.92968538 33 16 C30.63143971 19.86840098 28.34160674 22.55279775 24 24 C21.77181559 24.06937062 19.54165476 24.08457084 17.3125 24.0625 C15.54326172 24.04896484 15.54326172 24.04896484 13.73828125 24.03515625 C12.83464844 24.02355469 11.93101563 24.01195313 11 24 C11.11398665 25.62580966 11.24155659 27.25067157 11.375 28.875 C11.44460937 29.77992187 11.51421875 30.68484375 11.5859375 31.6171875 C11.79568132 34.17941903 11.79568132 34.17941903 14 36 C16.06874034 36.6425235 16.06874034 36.6425235 18 37 C18 37.66 18 38.32 18 39 C12.06 39 6.12 39 0 39 C0 38.34 0 37.68 0 37 C1.485 36.505 1.485 36.505 3 36 C5.11375026 31.77249948 4.26787194 26.27435621 4.29516602 21.6237793 C4.3124085 19.57338028 4.35630254 17.52458239 4.40039062 15.47460938 C4.40876953 14.18490234 4.41714844 12.89519531 4.42578125 11.56640625 C4.44036377 10.37990479 4.45494629 9.19340332 4.4699707 7.97094727 C4.30582748 4.88677023 4.30582748 4.88677023 1.97338867 3.21459961 C1.32217041 2.81378174 0.67095215 2.41296387 0 2 C0 1.34 0 0.68 0 0 Z " fill="#F9F9F9" transform="translate(84,98)"/>
<path d="M0 0 C-0.875 4.75 -0.875 4.75 -2 7 C-5.14125696 6.5091786 -7.841435 5.67073156 -10.75 4.4375 C-16.47635881 2.24419653 -21.59589487 2.15411116 -27.375 4.1875 C-30.38350966 6.26480429 -31.41041108 7.72517354 -33 11 C-34.08682649 19.10713817 -33.70494057 27.10246577 -29 34 C-25.44728693 37.46389524 -22.04635932 39.84029736 -17.046875 40.23046875 C-10.94847062 40.15098718 -5.02887196 39.94570541 1 39 C-0.80601108 43.33442659 -3.15274454 44.89076968 -7.2421875 47.0078125 C-14.26034135 49.53275737 -21.60735234 49.02844507 -28.375 46 C-34.750463 42.34501144 -39.80786473 37.09883059 -42 30 C-42.79924375 21.70087592 -43.00468965 13.99261515 -38 7 C-37.1646875 5.6696875 -37.1646875 5.6696875 -36.3125 4.3125 C-27.02156362 -4.97843638 -11.18067241 -7.45378161 0 0 Z " fill="#F1F1F1" transform="translate(50,40)"/>
<path d="M0 0 C3.76139878 2.67563419 6.82944548 6.21748471 8.89453125 10.34765625 C9.07056272 12.76015317 9.16198093 15.1791652 9.20703125 17.59765625 C9.26310547 19.55445313 9.26310547 19.55445313 9.3203125 21.55078125 C8.75831342 26.56236941 6.79742774 29.38767286 3.33203125 32.95703125 C-2.65154425 37.70486833 -6.42991721 38.86071445 -14.05859375 38.73046875 C-19.93168756 37.99256722 -23.50455423 35.03282943 -27.48046875 30.84765625 C-31.34105513 24.90829259 -32.05228276 19.30722725 -31.10546875 12.34765625 C-28.51947757 5.76614222 -23.62490896 0.95435721 -17.23046875 -1.96484375 C-10.6608182 -3.41016687 -5.87649774 -3.23381237 0 0 Z M-22.91796875 6.34765625 C-25.38615019 12.58306199 -24.92620714 19.11652118 -22.41796875 25.28515625 C-20.22847072 29.64077689 -17.47009988 32.16534068 -13.10546875 34.34765625 C-7.85267537 34.69210172 -4.27912251 34.92507376 -0.10546875 31.34765625 C3.43874178 26.33687584 3.70970209 21.27367345 2.89453125 15.34765625 C1.1182955 9.57739887 -1.93860373 5.56476089 -7.10546875 2.34765625 C-13.8041153 0.44221085 -18.13652793 1.07158362 -22.91796875 6.34765625 Z " fill="#F0F0F0" transform="translate(151.10546875,99.65234375)"/>
<path d="M0 0 C9.9 0 19.8 0 30 0 C29.67 2.31 29.34 4.62 29 7 C26 7 26 7 24.3125 5.5 C20.81849432 3.23361794 18.118203 3.7299539 14 4 C12.12175109 5.87824891 12.60897603 9.03935276 12.4375 11.5625 C12.35371094 12.76003906 12.26992188 13.95757812 12.18359375 15.19140625 C12.12300781 16.11824219 12.06242187 17.04507813 12 18 C13.93798521 17.69052329 15.87537426 17.37731166 17.8125 17.0625 C18.89144531 16.88847656 19.97039062 16.71445313 21.08203125 16.53515625 C24.04933356 16.06128079 24.04933356 16.06128079 27 15 C26.44271087 18.34373475 25.64826111 21.03312999 24 24 C23.319375 23.690625 22.63875 23.38125 21.9375 23.0625 C18.63034088 21.86629351 15.48454122 21.40994603 12 21 C12.14029419 23.1462026 12.28738164 25.29196218 12.4375 27.4375 C12.51871094 28.63246094 12.59992187 29.82742187 12.68359375 31.05859375 C12.67656114 33.88570244 12.67656114 33.88570244 14 35 C19.78560013 35.63337096 23.94878479 35.05422315 29 32 C30.33333333 31.33333333 31.66666667 30.66666667 33 30 C32.40144231 35.38701923 32.40144231 35.38701923 30.89916992 37.6809082 C27.97383801 39.71273342 25.44596971 39.3360731 21.92578125 39.29296875 C21.2419487 39.28872391 20.55811615 39.28447906 19.8535614 39.28010559 C17.67280439 39.26333353 15.49297691 39.22568657 13.3125 39.1875 C11.83269565 39.17245114 10.3528768 39.15876308 8.87304688 39.14648438 C5.24839664 39.11343569 1.62428906 39.06166446 -2 39 C-0.03617993 37.49440461 1.78263366 36.10868317 4 35 C4 24.77 4 14.54 4 4 C2.68 3.34 1.36 2.68 0 2 C0 1.34 0 0.68 0 0 Z " fill="#ECECEC" transform="translate(49,98)"/>
<path d="M0 0 C11.88 0 23.76 0 36 0 C35.67 2.64 35.34 5.28 35 8 C34.01 7.67 33.02 7.34 32 7 C32 6.34 32 5.68 32 5 C26.555 4.505 26.555 4.505 21 4 C21.495 19.345 21.495 19.345 22 35 C23.65 35.66 25.3 36.32 27 37 C27 37.66 27 38.32 27 39 C20.73 39 14.46 39 8 39 C8 38.34 8 37.68 8 37 C9.65 36.34 11.3 35.68 13 35 C13.33 24.77 13.66 14.54 14 4 C6.09239525 4.36774602 6.09239525 4.36774602 1 8 C0.34 8 -0.32 8 -1 8 C-0.67 5.36 -0.34 2.72 0 0 Z " fill="#F2F2F2" transform="translate(205,98)"/>
<path d="M0 0 C5.94 0 11.88 0 18 0 C16.02 0.99 16.02 0.99 14 2 C11.14206684 4.85793316 11.59200059 7.14665584 11.375 11.125 C11.30023438 12.40632813 11.22546875 13.68765625 11.1484375 15.0078125 C11.09945313 15.99523437 11.05046875 16.98265625 11 18 C12.32 18.33 13.64 18.66 15 19 C13.68 19.33 12.36 19.66 11 20 C11.33 24.95 11.66 29.9 12 35 C13.65 35.33 15.3 35.66 17 36 C17 36.66 17 37.32 17 38 C11.39 38 5.78 38 0 38 C0 37.34 0 36.68 0 36 C1.98 35.505 1.98 35.505 4 35 C3.93114587 30.4970922 3.8431934 25.99511512 3.73754883 21.49291992 C3.70430182 19.96144941 3.67626907 18.42985644 3.65356445 16.89819336 C3.62001282 14.69592113 3.5677009 12.49477088 3.51171875 10.29296875 C3.50532883 9.60849167 3.4989389 8.92401459 3.49235535 8.21879578 C3.3603721 3.94849478 3.18743103 3.18743103 0 0 Z " fill="#F0F0F0" transform="translate(8,99)"/>
<path d="M0 0 C5.61 0 11.22 0 17 0 C14 2 14 2 12 3 C12 8.61 12 14.22 12 20 C11.34 20 10.68 20 10 20 C10.11376617 22.12563103 10.24135631 24.2505261 10.375 26.375 C10.44460937 27.55835937 10.51421875 28.74171875 10.5859375 29.9609375 C10.70217346 33.10562319 10.70217346 33.10562319 13 35 C15.06874034 35.6425235 15.06874034 35.6425235 17 36 C17 36.66 17 37.32 17 38 C11.06 38 5.12 38 -1 38 C-1 37.34 -1 36.68 -1 36 C0.32 35.34 1.64 34.68 3 34 C3.07430494 29.80081815 3.12867413 25.60198726 3.16479492 21.40234375 C3.17985681 19.97454154 3.20031062 18.5467854 3.22631836 17.11914062 C3.26281842 15.06368627 3.27975166 13.00884495 3.29296875 10.953125 C3.3086792 9.71723633 3.32438965 8.48134766 3.34057617 7.20800781 C3.23462764 3.60146163 3.23462764 3.60146163 0 0 Z " fill="#F6F6F6" transform="translate(164,99)"/>
<path d="M0 0 C4.17196858 0.09102477 6.24612938 1.34449694 9.1875 4.375 C10.41441067 6.82882134 10.38925931 8.57484103 10.4375 11.3125 C10.46328125 12.18777344 10.4890625 13.06304687 10.515625 13.96484375 C10.1875 16.375 10.1875 16.375 8.859375 18.12890625 C5.68565026 20.49436931 2.80807182 20.48695548 -1 20.4375 C-2.35158203 20.42396484 -2.35158203 20.42396484 -3.73046875 20.41015625 C-4.41753906 20.39855469 -5.10460937 20.38695313 -5.8125 20.375 C-5.86629226 17.41642591 -5.90607093 14.45882279 -5.9375 11.5 C-5.95425781 10.65824219 -5.97101563 9.81648438 -5.98828125 8.94921875 C-5.99472656 8.14355469 -6.00117187 7.33789062 -6.0078125 6.5078125 C-6.02352295 5.39237061 -6.02352295 5.39237061 -6.03955078 4.25439453 C-5.56655739 0.33922984 -3.62399034 0.35645807 0 0 Z " fill="#202020" transform="translate(74.8125,40.625)"/>
<path d="M0 0 C3.5979439 0.3527396 5.34812698 1.10409877 8.1875 3.3125 C10.51152951 6.52187409 10.66320691 9.42756021 10.1875 13.3125 C8.38756226 16.01240662 7.103727 17.8543865 4.1875 19.3125 C2.64726004 19.38200541 1.10415012 19.39702357 -0.4375 19.375 C-1.66339844 19.36146484 -1.66339844 19.36146484 -2.9140625 19.34765625 C-3.54054688 19.33605469 -4.16703125 19.32445313 -4.8125 19.3125 C-4.86630578 16.52057795 -4.90607669 13.7296859 -4.9375 10.9375 C-4.95425781 10.1434375 -4.97101563 9.349375 -4.98828125 8.53125 C-5.00585473 6.45757985 -4.91585168 4.38366759 -4.8125 2.3125 C-2.8125 0.3125 -2.8125 0.3125 0 0 Z " fill="#282828" transform="translate(99.8125,100.6875)"/>
<path d="M0 0 C3.70818297 -0.08756305 7.41609763 -0.14058015 11.125 -0.1875 C12.17171875 -0.21263672 13.2184375 -0.23777344 14.296875 -0.26367188 C21.3621273 -0.33074706 25.99806986 0.23506435 31.375 5.1875 C33.50440244 8.87300422 33.99720702 11.91067818 33 16 C31.47670145 18.99486243 29.76403501 21.07913526 27 23 C23.97369644 23.82669756 21.12942758 24.04867998 18 24 C18.78375 23.236875 19.5675 22.47375 20.375 21.6875 C24.07353134 17.98155323 24.07353134 17.98155323 25.1875 13.0625 C25.00375139 9.42798119 25.00375139 9.42798119 24 6 C21.91965706 4.8624787 21.91965706 4.8624787 19.4375 4.25 C18.61121094 4.00765625 17.78492187 3.7653125 16.93359375 3.515625 C16.29550781 3.34546875 15.65742187 3.1753125 15 3 C15 2.67 15 2.34 15 2 C10.05 1.67 5.1 1.34 0 1 C0 0.67 0 0.34 0 0 Z " fill="#EBEBEB" transform="translate(84,98)"/>
<path d="M0 0 C3.1875 0.4375 3.1875 0.4375 6.0625 2.5 C8.70068284 6.1468998 8.84091537 8.02694623 8.1875 12.4375 C6.35634793 15.05343153 5.27781634 15.40739455 2.1875 16.4375 C-0.14549825 16.47704234 -2.47958189 16.48151732 -4.8125 16.4375 C-4.86634521 14.14608714 -4.90522087 11.85431812 -4.9375 9.5625 C-4.96070312 8.28632812 -4.98390625 7.01015625 -5.0078125 5.6953125 C-4.75746308 1.51948415 -4.14532465 0.64482828 0 0 Z " fill="#1D1D1D" transform="translate(23.8125,100.5625)"/>
<path d="M0 0 C3.96287721 0.38104589 5.4323945 1.57539752 8.25 4.3125 C9.64935013 7.11120027 9.50265405 9.21748792 9.25 12.3125 C7.39657225 14.87199546 6.31243607 15.29168798 3.25 16.3125 C0.91700175 16.35204234 -1.41708189 16.35651732 -3.75 16.3125 C-3.77685095 13.83326199 -3.79676547 11.3543116 -3.8125 8.875 C-3.82506836 7.81442383 -3.82506836 7.81442383 -3.83789062 6.73242188 C-3.84653588 4.92556441 -3.80220011 3.11862397 -3.75 1.3125 C-2.75 0.3125 -2.75 0.3125 0 0 Z " fill="#2D2D2D" transform="translate(178.75,100.6875)"/>
<path d="M0 0 C1 3 1 3 -0.4375 6.1875 C-1.2109375 7.5796875 -1.2109375 7.5796875 -2 9 C-2.70125 8.690625 -3.4025 8.38125 -4.125 8.0625 C-7.08936657 6.96697322 -9.87698108 6.43577008 -13 6 C-10.11980724 4.53347983 -7.20691485 3.17952126 -4.25 1.875 C-3.05117187 1.34519531 -3.05117187 1.34519531 -1.828125 0.8046875 C-1.22484375 0.53914063 -0.6215625 0.27359375 0 0 Z " fill="#E3E3E3" transform="translate(75,113)"/>
<path d="M0 0 C0.61875 0.165 1.2375 0.33 1.875 0.5 C4.92432753 1.21748883 7.01229281 0.79672192 10 0 C10 2 10 4 10 6 C6.7 6 3.4 6 0 6 C0 4.02 0 2.04 0 0 Z " fill="#6B6B6B" transform="translate(208,155)"/>
<path d="M0 0 C1.32 0 2.64 0 4 0 C4.33 1.65 4.66 3.3 5 5 C3.35 5.33 1.7 5.66 0 6 C-0.38218767 4.34385343 -0.71395102 2.67542976 -1 1 C-0.67 0.67 -0.34 0.34 0 0 Z " fill="#626262" transform="translate(171,155)"/>
<path d="M0 0 C2.475 0.495 2.475 0.495 5 1 C5.33 2.65 5.66 4.3 6 6 C4 6 2 6 0 6 C0 4.02 0 2.04 0 0 Z " fill="#808080" transform="translate(162,155)"/>
<path d="M0 0 C1.98 0.99 1.98 0.99 4 2 C4.66 1.34 5.32 0.68 6 0 C6 1.98 6 3.96 6 6 C5.01 5.34 4.02 4.68 3 4 C2.67 4.66 2.34 5.32 2 6 C1.34 6 0.68 6 0 6 C0 4.02 0 2.04 0 0 Z " fill="#7E7E7E" transform="translate(60,155)"/>
<path d="M0 0 C2.475 0.495 2.475 0.495 5 1 C5 2.65 5 4.3 5 6 C3.33333333 6 1.66666667 6 0 6 C0 4.02 0 2.04 0 0 Z " fill="#808080" transform="translate(82,155)"/>
<path d="M0 0 C0.66 0 1.32 0 2 0 C2 0.99 2 1.98 2 3 C2.66 3 3.32 3 4 3 C4.33 2.01 4.66 1.02 5 0 C5 1.98 5 3.96 5 6 C4.67 5.34 4.34 4.68 4 4 C3.34 4 2.68 4 2 4 C2 4.66 2 5.32 2 6 C1.34 6 0.68 6 0 6 C0 4.02 0 2.04 0 0 Z " fill="#979797" transform="translate(138,155)"/>
<path d="M0 0 C0.66 0 1.32 0 2 0 C2 0.99 2 1.98 2 3 C2.66 3 3.32 3 4 3 C4.33 2.01 4.66 1.02 5 0 C5 1.98 5 3.96 5 6 C4.67 5.34 4.34 4.68 4 4 C3.34 4 2.68 4 2 4 C2 4.66 2 5.32 2 6 C1.34 6 0.68 6 0 6 C0 4.02 0 2.04 0 0 Z " fill="#959495" transform="translate(39,155)"/>
<path d="M0 0 C0.66 0 1.32 0 2 0 C2.66 1.98 3.32 3.96 4 6 C2.02 6 0.04 6 -2 6 C-1.34 4.02 -0.68 2.04 0 0 Z " fill="#828282" transform="translate(116,155)"/>
<path d="M0 0 C0.66 0 1.32 0 2 0 C2 1.65 2 3.3 2 5 C2.99 5.33 3.98 5.66 5 6 C3.35 6.33 1.7 6.66 0 7 C0 4.69 0 2.38 0 0 Z " fill="#717171" transform="translate(197,155)"/>
<path d="M0 0 C0.66 0 1.32 0 2 0 C2.66 0.66 3.32 1.32 4 2 C3.625 4.125 3.625 4.125 3 6 C1.68 6 0.36 6 -1 6 C-0.67 4.02 -0.34 2.04 0 0 Z " fill="#8B8B8B" transform="translate(181,155)"/>
<path d="M0 0 C1.32 0.33 2.64 0.66 4 1 C4 2.32 4 3.64 4 5 C2.68 5.33 1.36 5.66 0 6 C0 4.02 0 2.04 0 0 Z " fill="#8B8B8B" transform="translate(146,155)"/>
<path d="M0 0 C1.32 0.33 2.64 0.66 4 1 C4 2.32 4 3.64 4 5 C2.68 5.33 1.36 5.66 0 6 C0 4.02 0 2.04 0 0 Z " fill="#8A8A8A" transform="translate(98,155)"/>
<path d="M0 0 C1.32 0.33 2.64 0.66 4 1 C4 2.32 4 3.64 4 5 C2.68 5.33 1.36 5.66 0 6 C0 4.02 0 2.04 0 0 Z " fill="#878787" transform="translate(47,155)"/>
</svg>
